<svg width="864" height="587" viewBox="0 0 864 587" fill="none" xmlns="http://www.w3.org/2000/svg">
<path d="M2.57859 248.922H38.4586C59.5786 248.922 71.8186 253.722 71.8186 268.602C71.8186 280.122 64.6186 286.242 52.0186 288.282V288.522C67.1386 290.442 76.0186 296.802 76.0186 309.402C76.0186 328.002 60.4186 332.922 37.8586 332.922H2.57859V330.642H10.3786V251.202H2.57859V248.922ZM33.7786 290.442V330.642H39.4186C48.6586 330.642 51.2986 323.682 51.2986 312.642V306.282C51.2986 296.442 48.1786 290.442 36.5386 290.442H33.7786ZM33.7786 251.202V288.162H36.8986C45.5386 288.162 48.0586 282.642 48.0586 272.802V267.162C48.0586 255.642 46.0186 251.202 37.6186 251.202H33.7786ZM133.367 330.642L124.607 304.722H100.847L91.6073 330.642H100.607V332.922H82.2473V330.642H87.8873L118.487 248.202H128.327L158.567 330.642H164.087V332.922H124.847V330.642H133.367ZM113.207 270.642L101.927 302.082H123.647L113.207 270.642ZM210.208 290.442H203.848V330.642H211.648V332.922H172.648V330.642H180.448V251.202H172.648V248.922H208.888C233.968 248.922 245.968 251.562 245.968 269.082C245.968 283.722 238.288 288.042 225.568 289.122V289.482C238.528 291.162 242.968 296.202 242.968 310.122V316.482C242.968 324.282 243.328 327.042 246.688 327.042C248.848 327.042 250.648 326.082 252.208 316.722L254.248 316.962C252.448 330.642 249.088 334.122 237.928 334.122C222.808 334.122 218.368 329.082 218.368 312.162V303.402C218.368 294.882 216.688 290.442 210.208 290.442ZM203.848 251.202V288.162H207.688C216.568 288.162 221.128 283.242 221.128 270.282V266.802C221.128 253.362 216.208 251.202 207.808 251.202H203.848ZM265.266 248.922H301.146C322.266 248.922 334.506 253.722 334.506 268.602C334.506 280.122 327.306 286.242 314.706 288.282V288.522C329.826 290.442 338.706 296.802 338.706 309.402C338.706 328.002 323.106 332.922 300.546 332.922H265.266V330.642H273.066V251.202H265.266V248.922ZM296.466 290.442V330.642H302.106C311.346 330.642 313.986 323.682 313.986 312.642V306.282C313.986 296.442 310.866 290.442 299.226 290.442H296.466ZM296.466 251.202V288.162H299.586C308.226 288.162 310.746 282.642 310.746 272.802V267.162C310.746 255.642 308.706 251.202 300.306 251.202H296.466ZM350.368 248.922H412.768L413.968 272.682H411.808C405.208 256.962 399.568 251.562 385.048 251.562H380.848V288.642H384.928C392.728 288.642 397.768 282.042 399.808 272.922H401.608V308.442H399.568C396.688 296.442 392.128 291.762 383.728 291.762H380.848V330.282H385.408C400.648 330.282 411.208 319.842 414.808 306.762H417.208L416.248 332.922H350.368V330.282H357.448V251.562H350.368V248.922ZM468.09 290.442H461.73V330.642H469.53V332.922H430.53V330.642H438.33V251.202H430.53V248.922H466.77C491.85 248.922 503.85 251.562 503.85 269.082C503.85 283.722 496.17 288.042 483.45 289.122V289.482C496.41 291.162 500.85 296.202 500.85 310.122V316.482C500.85 324.282 501.21 327.042 504.57 327.042C506.73 327.042 508.53 326.082 510.09 316.722L512.13 316.962C510.33 330.642 506.97 334.122 495.81 334.122C480.69 334.122 476.25 329.082 476.25 312.162V303.402C476.25 294.882 474.57 290.442 468.09 290.442ZM461.73 251.202V288.162H465.57C474.45 288.162 479.01 283.242 479.01 270.282V266.802C479.01 253.362 474.09 251.202 465.69 251.202H461.73ZM557.285 331.602C564.485 331.602 572.525 327.762 572.525 319.002C572.525 309.042 565.085 305.802 550.325 301.602C535.805 297.522 524.765 291.762 524.765 273.642C524.765 260.202 534.725 247.602 553.205 247.602C564.245 247.602 570.485 251.322 574.565 251.322C576.605 251.322 577.205 250.482 578.045 248.922H579.365L580.205 273.162H578.285C572.165 262.122 564.005 250.122 551.645 250.122C543.005 250.122 537.005 255.162 537.005 262.242C537.005 271.122 545.165 274.122 557.285 277.362C570.605 280.962 585.365 285.522 585.365 305.442C585.365 322.722 573.605 334.122 555.965 334.122C544.325 334.122 534.245 330.522 530.885 330.522C528.965 330.522 528.245 331.842 527.285 334.122H525.605L524.405 305.562H526.445C532.445 317.562 544.085 331.602 557.285 331.602ZM598.758 248.922H636.198V251.202H629.238V288.402H653.118V251.202H646.038V248.922H683.598V251.202H676.518V330.642H683.598V332.922H646.038V330.642H653.118V291.522H629.238V330.642H636.198V332.922H598.758V330.642H605.838V251.202H598.758V248.922ZM752.241 295.842V286.962C752.241 262.362 751.521 250.122 737.121 250.122C722.601 250.122 721.641 262.842 721.641 287.442V296.082C721.641 318.642 723.081 331.602 737.121 331.602C750.561 331.602 752.241 319.962 752.241 295.842ZM697.041 292.242C697.041 264.642 711.321 247.602 738.081 247.602C763.881 247.602 776.961 263.442 776.961 290.682C776.961 317.442 764.361 334.122 736.641 334.122C709.881 334.122 697.041 318.642 697.041 292.242ZM789.687 248.922H824.967C847.527 248.922 860.847 253.962 860.847 272.802C860.847 293.202 845.127 298.482 821.847 298.482H820.887V330.642H835.887V332.922H789.687V330.642H797.487V251.202H789.687V248.922ZM820.887 251.202V296.202H823.407C833.487 296.202 836.127 289.242 836.127 275.322V269.562C836.127 256.002 833.247 251.202 824.127 251.202H820.887Z" fill="white"/>
<path d="M258.941 533.577H267.941V536.577H262.241V542.127H266.771V545.127H262.241V551.577H267.941V554.577H258.941V533.577ZM274.188 554.877C272.588 554.877 271.378 554.427 270.558 553.527C269.738 552.607 269.328 551.297 269.328 549.597V548.397H272.448V549.837C272.448 551.197 273.018 551.877 274.158 551.877C274.718 551.877 275.138 551.717 275.418 551.397C275.718 551.057 275.868 550.517 275.868 549.777C275.868 548.897 275.668 548.127 275.268 547.467C274.868 546.787 274.128 545.977 273.048 545.037C271.688 543.837 270.738 542.757 270.198 541.797C269.658 540.817 269.388 539.717 269.388 538.497C269.388 536.837 269.808 535.557 270.648 534.657C271.488 533.737 272.708 533.277 274.308 533.277C275.888 533.277 277.078 533.737 277.878 534.657C278.698 535.557 279.108 536.857 279.108 538.557V539.427H275.988V538.347C275.988 537.627 275.848 537.107 275.568 536.787C275.288 536.447 274.878 536.277 274.338 536.277C273.238 536.277 272.688 536.947 272.688 538.287C272.688 539.047 272.888 539.757 273.288 540.417C273.708 541.077 274.458 541.877 275.538 542.817C276.918 544.017 277.868 545.107 278.388 546.087C278.908 547.067 279.168 548.217 279.168 549.537C279.168 551.257 278.738 552.577 277.878 553.497C277.038 554.417 275.808 554.877 274.188 554.877ZM283.641 536.577H280.191V533.577H290.391V536.577H286.941V554.577H283.641V536.577ZM289.791 551.397H292.971V554.577H289.791V551.397Z" fill="#E9C664"/>
<path d="M604.099 552.297C604.099 550.797 604.339 549.517 604.819 548.457C605.299 547.377 606.159 546.187 607.399 544.887C608.619 543.587 609.459 542.477 609.919 541.557C610.399 540.637 610.639 539.677 610.639 538.677C610.639 537.777 610.489 537.157 610.189 536.817C609.909 536.457 609.489 536.277 608.929 536.277C607.789 536.277 607.219 536.967 607.219 538.347V540.597H604.099V538.557C604.099 536.857 604.519 535.557 605.359 534.657C606.199 533.737 607.419 533.277 609.019 533.277C610.619 533.277 611.839 533.737 612.679 534.657C613.519 535.557 613.939 536.857 613.939 538.557C613.939 539.837 613.629 541.087 613.009 542.307C612.409 543.527 611.359 544.927 609.859 546.507C608.879 547.547 608.219 548.397 607.879 549.057C607.539 549.697 607.369 550.387 607.369 551.127V551.577H613.639V554.577H604.099V552.297ZM620.941 554.877C619.321 554.877 618.081 554.417 617.221 553.497C616.361 552.577 615.931 551.277 615.931 549.597V538.557C615.931 536.877 616.361 535.577 617.221 534.657C618.081 533.737 619.321 533.277 620.941 533.277C622.561 533.277 623.801 533.737 624.661 534.657C625.521 535.577 625.951 536.877 625.951 538.557V549.597C625.951 551.277 625.521 552.577 624.661 553.497C623.801 554.417 622.561 554.877 620.941 554.877ZM620.941 551.877C622.081 551.877 622.651 551.187 622.651 549.807V538.347C622.651 536.967 622.081 536.277 620.941 536.277C619.801 536.277 619.231 536.967 619.231 538.347V549.807C619.231 551.187 619.801 551.877 620.941 551.877ZM628.123 552.297C628.123 550.797 628.363 549.517 628.843 548.457C629.323 547.377 630.183 546.187 631.423 544.887C632.643 543.587 633.483 542.477 633.943 541.557C634.423 540.637 634.663 539.677 634.663 538.677C634.663 537.777 634.513 537.157 634.213 536.817C633.933 536.457 633.513 536.277 632.953 536.277C631.813 536.277 631.243 536.967 631.243 538.347V540.597H628.123V538.557C628.123 536.857 628.543 535.557 629.383 534.657C630.223 533.737 631.443 533.277 633.043 533.277C634.643 533.277 635.863 533.737 636.703 534.657C637.543 535.557 637.963 536.857 637.963 538.557C637.963 539.837 637.653 541.087 637.033 542.307C636.433 543.527 635.383 544.927 633.883 546.507C632.903 547.547 632.243 548.397 631.903 549.057C631.563 549.697 631.393 550.387 631.393 551.127V551.577H637.663V554.577H628.123V552.297ZM645.024 554.877C643.424 554.877 642.204 554.427 641.364 553.527C640.524 552.607 640.104 551.297 640.104 549.597V547.947H643.224V549.837C643.224 551.197 643.794 551.877 644.934 551.877C646.074 551.877 646.644 551.197 646.644 549.837V545.127C646.644 543.747 646.074 543.057 644.934 543.057C643.794 543.057 643.224 543.747 643.224 545.127V545.307H640.104L640.704 533.577H649.404V536.577H643.644L643.374 541.587H643.434C644.054 540.567 645.004 540.057 646.284 540.057C647.484 540.057 648.394 540.467 649.014 541.287C649.634 542.107 649.944 543.297 649.944 544.857V549.597C649.944 551.297 649.524 552.607 648.684 553.527C647.844 554.427 646.624 554.877 645.024 554.877Z" fill="#E9C664"/>
<path d="M458.485 76.7521C459.885 76.7522 461.02 77.8862 461.02 79.2843C461.02 80.6824 459.885 81.8165 458.485 81.8166C457.086 81.8166 455.951 80.6825 455.951 79.2843C455.951 77.8861 457.086 76.7521 458.485 76.7521Z" fill="#BE9359" stroke="#E9C664"/>
<path d="M447.043 19.6483C447.045 15.6963 445.718 11.8583 443.277 8.74955C440.835 5.64079 437.42 3.44132 433.578 2.50371C429.737 1.56611 425.692 1.94469 422.091 3.57875C418.491 5.21281 415.543 8.00771 413.722 11.5154C411.9 15.0232 411.31 19.0405 412.045 22.9236C412.781 26.8066 414.799 30.3305 417.778 32.9302C420.756 35.5299 424.522 37.0549 428.471 37.2608C432.42 37.4667 436.323 36.3415 439.556 34.0656C441.869 32.4377 443.756 30.2783 445.059 27.7693C446.362 25.2603 447.042 22.4751 447.043 19.6483Z" stroke="#E9C664" stroke-width="4" stroke-linecap="round" stroke-linejoin="round"/>
<path d="M504.826 19.6513C504.825 16.1648 503.79 12.7569 501.851 9.85848C499.912 6.96005 497.156 4.70127 493.933 3.36767C490.71 2.03407 487.163 1.68554 483.742 2.36617C480.32 3.04679 477.177 4.72602 474.711 7.19151C472.244 9.657 470.564 12.7981 469.883 16.2176C469.203 19.6371 469.552 23.1815 470.887 26.4028C472.221 29.624 474.482 32.3775 477.382 34.3149C480.283 36.2524 483.693 37.2869 487.181 37.2877C489.499 37.2884 491.794 36.8326 493.935 35.9465C496.076 35.0604 498.022 33.7613 499.66 32.1235C501.299 30.4856 502.599 28.5411 503.485 26.4011C504.371 24.2611 504.827 21.9675 504.826 19.6513V19.6513Z" stroke="#E9C664" stroke-width="4" stroke-linecap="round" stroke-linejoin="round"/>
<path d="M487.574 148.863C487.572 145.412 487.086 141.978 486.129 138.662L468.829 78.6547L462.77 57.6174C461.627 58.0094 460.426 58.2084 459.217 58.206C458.907 58.2085 458.598 58.1941 458.289 58.1631V58.1631C456.465 58.0053 454.707 57.4004 453.172 56.4019C451.637 55.4034 450.372 54.0421 449.489 52.4385L439.374 34.1925C436.432 36.2143 432.945 37.2948 429.374 37.2906L447.749 78.6657L458.297 102.318L485.032 162.282C486.708 158.006 487.57 153.455 487.574 148.863V148.863Z" stroke="#E9C664" stroke-width="4" stroke-linecap="round" stroke-linejoin="round"/>
<path d="M489.452 37.1358C485.733 37.6225 481.955 36.9077 478.67 35.096L462.777 57.6154L469.29 80.2288L489.452 37.1358Z" stroke="#E9C664" stroke-width="4" stroke-linecap="round" stroke-linejoin="round"/>
<path d="M458.45 102.646L447.75 78.6608L430.265 138.661C427.992 146.439 428.382 154.753 431.373 162.285L458.45 102.646Z" stroke="#E9C664" stroke-width="4" stroke-linecap="round" stroke-linejoin="round"/>
<path d="M357.238 81.7532L243.763 82.9814L245.258 170.903" stroke="#E9C664" stroke-opacity="0.913725" stroke-width="4.00058" stroke-linecap="round" stroke-linejoin="round"/>
<path d="M556.155 86.2401H669.624V174.162" stroke="#E9C664" stroke-opacity="0.913725" stroke-width="4" stroke-linecap="round" stroke-linejoin="round"/>
<path d="M245.649 391.548V489.974L460.24 584L670.91 489.974V391.548" stroke="#E9C664" stroke-opacity="0.913725" stroke-width="4" stroke-linecap="round"/>
<path d="M306.782 496.356V489.196H307.262C308.742 494.076 311.182 495.476 314.462 495.476C317.422 495.476 318.542 494.396 318.542 492.876C318.542 491.076 316.582 490.676 313.542 489.836C310.342 488.956 306.782 487.716 306.782 483.276C306.782 479.196 309.582 476.516 313.822 476.516C315.582 476.516 316.782 476.956 317.862 477.436C318.342 477.636 318.502 477.756 318.982 477.756C319.582 477.756 319.862 477.436 320.382 476.436H320.822V482.556H320.342C318.902 478.876 316.862 477.356 314.022 477.356C311.382 477.356 310.302 478.436 310.302 479.676C310.302 481.516 312.702 481.956 315.342 482.676C318.502 483.516 322.022 484.796 322.022 489.516C322.022 494.076 319.062 496.356 314.542 496.356C312.622 496.356 311.262 495.956 309.742 495.196C309.502 495.036 309.142 494.876 308.982 494.876C308.462 494.876 307.902 495.236 307.262 496.356H306.782ZM323.206 465.956H332.846V480.596C333.526 478.596 334.846 476.516 338.806 476.516C342.526 476.516 345.006 478.356 345.006 483.196V495.236H347.246V495.956H335.926V495.236H337.566V482.236C337.566 478.836 337.086 478.436 336.086 478.436C334.406 478.436 332.846 480.956 332.846 484.196V495.236H334.566V495.956H323.206V495.236H325.406V466.676H323.206V465.956ZM357.455 486.556H358.615V483.476C358.615 478.396 358.175 477.076 356.575 477.076C355.855 477.076 354.695 477.396 354.695 478.676C354.695 478.996 354.775 479.396 354.935 479.836H355.935C356.135 480.356 356.255 480.876 356.255 481.636C356.255 483.516 354.735 484.756 352.735 484.756C350.255 484.756 349.295 483.396 349.295 481.436C349.295 478.076 352.215 476.516 357.655 476.516C363.935 476.516 366.055 478.276 366.055 484.076V492.196C366.055 493.836 366.535 494.276 367.215 494.276C367.935 494.276 368.615 493.516 368.815 490.156L369.415 490.196C369.215 494.996 367.735 496.356 364.295 496.356C361.055 496.356 359.255 495.356 358.775 493.396C358.135 495.316 356.975 496.356 354.175 496.356C351.375 496.356 348.255 495.516 348.255 491.516C348.255 487.476 351.735 486.556 357.455 486.556ZM356.895 494.756C357.655 494.756 358.615 493.476 358.615 490.916V487.196H358.335C356.655 487.196 355.855 488.396 355.855 490.836V491.476C355.855 494.356 356.135 494.756 356.895 494.756ZM367.025 477.636V476.916H378.985V477.636H376.465L381.265 490.916L385.585 477.636H382.905V476.916H388.305V477.636H386.545L380.625 495.956H376.065L368.665 477.636H367.025ZM387.898 486.476C387.898 479.556 392.618 476.516 398.178 476.516C404.458 476.516 407.138 479.676 406.898 485.636H395.618V487.196C395.618 491.916 396.458 495.116 400.338 495.116C403.298 495.116 405.298 493.236 406.178 490.156L406.898 490.276C405.978 493.716 403.898 496.356 398.218 496.356C391.098 496.356 387.898 492.276 387.898 486.476ZM395.658 484.836H399.778V482.876C399.778 478.676 399.458 477.276 397.818 477.276C396.418 477.276 395.658 478.636 395.658 482.876V484.836ZM408.853 496.356V489.196H409.333C410.813 494.076 413.253 495.476 416.533 495.476C419.493 495.476 420.613 494.396 420.613 492.876C420.613 491.076 418.653 490.676 415.613 489.836C412.413 488.956 408.853 487.716 408.853 483.276C408.853 479.196 411.653 476.516 415.893 476.516C417.653 476.516 418.853 476.956 419.933 477.436C420.413 477.636 420.573 477.756 421.053 477.756C421.653 477.756 421.933 477.436 422.453 476.436H422.893V482.556H422.413C420.973 478.876 418.933 477.356 416.093 477.356C413.453 477.356 412.373 478.436 412.373 479.676C412.373 481.516 414.773 481.956 417.413 482.676C420.573 483.516 424.093 484.796 424.093 489.516C424.093 494.076 421.133 496.356 416.613 496.356C414.693 496.356 413.333 495.956 411.813 495.196C411.573 495.036 411.213 494.876 411.053 494.876C410.533 494.876 409.973 495.236 409.333 496.356H408.853ZM452.664 504.996C455.384 504.996 456.744 501.916 456.744 498.556C456.744 496.076 455.784 494.436 454.624 492.876C452.944 494.796 450.464 496.356 446.104 496.356C439.744 496.356 434.664 494.356 434.664 488.876C434.664 485.476 436.264 483.196 440.944 482.156C438.704 480.116 437.424 478.076 437.424 475.236C437.424 469.756 441.944 467.516 446.624 467.516C452.224 467.516 454.624 469.716 454.624 472.836C454.624 475.596 452.584 477.796 448.184 479.316C449.064 479.916 450.104 480.596 451.304 481.356C453.424 482.716 455.584 484.076 457.384 485.796C457.824 483.756 458.024 481.796 458.064 479.956H454.904V479.156H461.864V479.956H459.064C459.024 482.236 458.824 484.476 458.304 486.716C460.224 488.836 461.784 490.916 461.784 494.836C461.784 500.556 457.024 505.956 451.824 505.956C448.344 505.956 446.344 504.436 446.344 501.916C446.344 499.916 447.744 498.556 449.664 498.556C451.704 498.556 452.864 499.556 452.864 501.436C452.864 501.836 452.784 502.316 452.624 502.876H451.224C450.824 504.076 451.064 504.996 452.664 504.996ZM447.224 495.316C450.504 495.316 452.584 493.836 453.944 492.036C452.624 490.636 451.184 489.476 448.784 487.876C445.864 485.956 443.384 484.396 441.504 482.756C441.104 483.596 440.904 484.996 440.904 487.756C440.904 493.436 443.144 495.316 447.224 495.316ZM442.824 472.436C442.824 474.916 443.824 476.316 447.464 478.836C449.944 477.516 449.984 475.716 449.984 473.076C449.984 469.876 448.784 468.356 446.504 468.356C444.824 468.356 442.824 469.196 442.824 472.436ZM474.542 490.236V477.636H472.342V476.916H474.542V471.756L481.982 469.916V476.916H487.182V477.636H481.982V491.116C481.982 493.476 482.342 494.756 483.742 494.756C485.662 494.756 486.862 492.996 487.222 490.276L487.902 490.356C487.542 493.476 486.222 496.356 481.342 496.356C477.382 496.356 474.542 495.196 474.542 490.236ZM501.644 478.036C499.724 478.036 497.924 480.916 497.924 484.516V495.236H500.764V495.956H488.284V495.236H490.484V477.636H488.284V476.916H497.924V480.756C498.644 477.916 500.884 476.516 503.284 476.516C505.644 476.516 507.524 477.756 507.524 480.796C507.524 483.076 506.324 484.596 504.164 484.596C501.484 484.596 500.204 482.916 501.044 480.076H502.484C503.284 478.436 502.484 478.036 501.644 478.036ZM510.049 470.436C510.049 468.476 511.129 466.716 514.129 466.716C516.609 466.716 518.089 467.956 518.089 470.396C518.089 472.516 516.929 474.156 514.049 474.156C510.809 474.156 510.049 472.116 510.049 470.436ZM507.929 476.916H517.729V495.236H519.969V495.956H508.089V495.236H510.289V477.636H507.929V476.916ZM520.784 476.916H530.424V480.596C531.064 478.596 532.384 476.516 536.064 476.516C538.904 476.516 541.024 477.756 541.704 480.836C542.344 478.836 543.984 476.516 547.584 476.516C551.064 476.516 553.464 478.356 553.464 483.196V495.236H555.704V495.956H544.624V495.236H546.024V482.236C546.024 478.836 545.584 478.436 544.864 478.436C543.424 478.436 541.944 480.596 541.944 483.956V495.236H543.384V495.956H533.104V495.236H534.504V482.236C534.504 478.836 534.064 478.436 533.344 478.436C531.864 478.436 530.424 480.956 530.424 484.196V495.236H531.864V495.956H520.784V495.236H522.984V477.636H520.784V476.916ZM557.212 496.356V489.196H557.692C559.172 494.076 561.612 495.476 564.892 495.476C567.852 495.476 568.972 494.396 568.972 492.876C568.972 491.076 567.012 490.676 563.972 489.836C560.772 488.956 557.212 487.716 557.212 483.276C557.212 479.196 560.012 476.516 564.252 476.516C566.012 476.516 567.212 476.956 568.292 477.436C568.772 477.636 568.932 477.756 569.412 477.756C570.012 477.756 570.292 477.436 570.812 476.436H571.252V482.556H570.772C569.332 478.876 567.292 477.356 564.452 477.356C561.812 477.356 560.732 478.436 560.732 479.676C560.732 481.516 563.132 481.956 565.772 482.676C568.932 483.516 572.452 484.796 572.452 489.516C572.452 494.076 569.492 496.356 564.972 496.356C563.052 496.356 561.692 495.956 560.172 495.196C559.932 495.036 559.572 494.876 559.412 494.876C558.892 494.876 558.332 495.236 557.692 496.356H557.212Z" fill="white"/>
<path d="M432.776 366.716C428.359 366.708 424.024 367.913 420.245 370.199C416.467 372.486 413.389 375.766 411.348 379.681C407.552 387.229 401.06 393.078 393.155 396.071C391.05 396.9 388.817 397.362 386.555 397.438C380.628 397.458 374.837 395.663 369.961 392.296C373.748 401.005 380.022 408.404 387.997 413.565C395.973 418.727 405.294 421.422 414.795 421.313C425.635 421.356 436.188 417.837 444.829 411.296C456.566 401.922 456.023 390.609 456.023 390.609C456.024 377.412 446.077 366.716 432.776 366.716Z" stroke="#E9C664" stroke-width="4" stroke-linecap="round" stroke-linejoin="round"/>
<path d="M525.347 397.432C523.085 397.358 520.853 396.896 518.747 396.066C510.845 393.075 504.354 387.228 500.557 379.682C498.517 375.767 495.439 372.487 491.66 370.201C487.881 367.914 483.547 366.709 479.129 366.717C465.829 366.717 455.881 377.411 455.881 390.603C455.881 390.603 455.334 401.913 467.075 411.29C475.717 417.83 486.27 421.349 497.109 421.307C506.61 421.415 515.931 418.72 523.905 413.559C531.88 408.398 538.154 401 541.941 392.292C537.066 395.659 531.274 397.453 525.347 397.432Z" stroke="#E9C664" stroke-width="4" stroke-linecap="round" stroke-linejoin="round"/>
</svg>
